<?xml version="1.0" encoding="UTF-8"?>
<svg version="1.1" xmlns="http://www.w3.org/2000/svg" width="192" height="192">
<path d="M0 0 C0.66 0 1.32 0 2 0 C2.63381508 1.32916561 3.25648484 2.66364609 3.875 4 C4.39707031 5.11375 4.39707031 5.11375 4.9296875 6.25 C10.62941723 20.89456106 9.86937273 38.67809352 3.84765625 53.10449219 C0.10887067 61.46507146 -4.13391137 69.92618724 -10 77 C-10.66 77 -11.32 77 -12 77 C-12 77.66 -12 78.32 -12 79 C-27.42552935 92.2413836 -46.7746975 97.55960325 -66.74316406 96.24511719 C-73.50791775 95.51039059 -80.31303852 93.79130766 -86 90 C-87.90859782 90.2031989 -87.90859782 90.2031989 -90 91 C-90.93714844 91.309375 -91.87429687 91.61875 -92.83984375 91.9375 C-94.90261803 92.64503418 -96.96511896 93.35336581 -99.02734375 94.0625 C-112.49041877 98.30841065 -125.85721239 96.08319615 -139 92 C-139.93714844 91.71125 -140.87429687 91.4225 -141.83984375 91.125 C-157.22378485 85.68107771 -168.2340811 73.30562685 -175.203125 58.9609375 C-182.42788355 43.30729398 -185.53688261 25.57789159 -180.125 8.75 C-178.96213997 5.83854302 -177.75051923 3.62577884 -176 1 C-173.27478182 2.07062143 -172.02990878 2.96086825 -170.2265625 5.3203125 C-163.37702812 13.56378721 -152.35478336 17.84888937 -142.75 22 C-131.30901297 26.97140425 -120.67843776 33.54242123 -115.75 45.6875 C-112.09826992 56.29764489 -112.99211705 69.31127307 -116 80 C-122.82226323 82.06224307 -129.76171231 78.84882884 -136 76 C-139.94764687 73.63335176 -143.47764168 70.95554204 -147 68 C-147.71285156 67.41347656 -148.42570312 66.82695312 -149.16015625 66.22265625 C-151.52999476 64.2323812 -153.81146182 62.18853818 -156 60 C-146.44132672 71.83308429 -133.98881351 80.51151222 -119 84 C-111.90296631 84.53861416 -104.65012423 84.78377293 -98 82 C-97.67 81.34 -97.34 80.68 -97 80 C-97.73567761 78.11685181 -97.73567761 78.11685181 -98.875 76.125 C-103.76505183 67.13140818 -103.49431477 54.00424925 -100.75 44.25 C-99.35795151 40.40021995 -97.4784827 37.24766699 -95 34 C-91.125 35.875 -91.125 35.875 -90 37 C-90.32179252 40.34664219 -90.7068881 43.30329556 -92.015625 46.4140625 C-94.11673798 51.93365295 -93.83890867 57.63527137 -91.87890625 63.16015625 C-90.66503816 65.82516409 -89.39436823 68.42539866 -88 71 C-87.34 71 -86.68 71 -86 71 C-85.35165346 69.730447 -84.70642185 68.45930294 -84.0625 67.1875 C-83.70285156 66.47980469 -83.34320313 65.77210938 -82.97265625 65.04296875 C-80.28500069 59.3978127 -79.88027114 52.68087665 -81.70703125 46.67578125 C-81.98933594 45.99902344 -82.27164063 45.32226562 -82.5625 44.625 C-84 41 -84 41 -83.9375 38.125 C-82.75783025 35.45108191 -81.59639965 35.15976 -79 34 C-72.57695668 45.3016144 -70.08114162 57.02865227 -73.3125 69.75 C-74.42601503 73.53064863 -75.66554092 76.77622317 -78 80 C-70.84604002 84.83944352 -62.27218885 84.85200105 -53.9375 83.5 C-43.84306544 81.00754702 -33.32573339 75.32573339 -26 68 C-28.06214636 68.95534311 -28.06214636 68.95534311 -29.92578125 70.453125 C-37.95519951 76.49818621 -47.60849231 82.20831485 -58 81 C-61.50860872 67.43337961 -63.48322714 53.57196752 -56.3125 40.875 C-49.52040612 30.42066072 -41.02544336 26.15942155 -30 21 C-14.36881386 13.82441733 -14.36881386 13.82441733 -1.859375 2.26171875 C-0.93898437 1.14216797 -0.93898437 1.14216797 0 0 Z M-161 53 C-160.67 53.99 -160.34 54.98 -160 56 C-160 55.01 -160 54.02 -160 53 C-160.33 53 -160.66 53 -161 53 Z M-19 59 C-18 61 -18 61 -18 61 Z " fill="#F48533" transform="translate(183,76)"/>
<path d="M0 0 C2.72521818 1.07062143 3.97009122 1.96086825 5.7734375 4.3203125 C12.62297188 12.56378721 23.64521664 16.84888937 33.25 21 C44.69098703 25.97140425 55.32156224 32.54242123 60.25 44.6875 C63.90173008 55.29764489 63.00788295 68.31127307 60 79 C53.17773677 81.06224307 46.23828769 77.84882884 40 75 C36.05235313 72.63335176 32.52235832 69.95554204 29 67 C28.28714844 66.41347656 27.57429688 65.82695312 26.83984375 65.22265625 C24.47000524 63.2323812 22.18853818 61.18853818 20 59 C29.55867328 70.83308429 42.01118649 79.51151222 57 83 C65.17022052 83.62006138 72.34337108 83.27173852 79.9453125 80.21875 C82 80 82 80 83.921875 81.43359375 C84.52515625 82.09488281 85.1284375 82.75617188 85.75 83.4375 C86.36359375 84.09621094 86.9771875 84.75492187 87.609375 85.43359375 C88.06828125 85.95050781 88.5271875 86.46742188 89 87 C86.46531894 90.05909783 83.86503364 90.94050057 80.125 92.125 C78.58199219 92.62386719 78.58199219 92.62386719 77.0078125 93.1328125 C63.3478844 97.07112943 50.2909228 95.12921873 37 91 C36.06285156 90.71125 35.12570313 90.4225 34.16015625 90.125 C18.77621515 84.68107771 7.7659189 72.30562685 0.796875 57.9609375 C-6.42788355 42.30729398 -9.53688261 24.57789159 -4.125 7.75 C-2.96213997 4.83854302 -1.75051923 2.62577884 0 0 Z M15 52 C15.33 52.99 15.66 53.98 16 55 C16 54.01 16 53.02 16 52 C15.67 52 15.34 52 15 52 Z " fill="#147C12" transform="translate(7,77)"/>
<path d="M0 0 C7.26 0 14.52 0 22 0 C22 0.66 22 1.32 22 2 C20.7934375 2.433125 20.7934375 2.433125 19.5625 2.875 C16.8673532 3.73262568 16.8673532 3.73262568 16 6 C15.77049681 8.204364 15.58924067 10.41392173 15.4375 12.625 C15.35371094 13.81351563 15.26992187 15.00203125 15.18359375 16.2265625 C15.09271484 17.59941406 15.09271484 17.59941406 15 19 C17.32239398 17.26195031 19.63241085 15.51073865 21.9375 13.75 C22.9265332 13.01330078 22.9265332 13.01330078 23.93554688 12.26171875 C24.56396484 11.77832031 25.19238281 11.29492188 25.83984375 10.796875 C26.42113037 10.35698242 27.00241699 9.91708984 27.60131836 9.46386719 C29.27746637 7.70960231 29.6082062 6.36404394 30 4 C27.525 3.01 27.525 3.01 25 2 C25 1.34 25 0.68 25 0 C31.6 0 38.2 0 45 0 C45 0.66 45 1.32 45 2 C40.33333333 4.33333333 35.66666667 6.66666667 31 9 C31 9.66 31 10.32 31 11 C30.34 11.66 29.68 12.32 29 13 C30.52465403 15.44969116 32.0680794 17.8834362 33.625 20.3125 C34.26501953 21.34793945 34.26501953 21.34793945 34.91796875 22.40429688 C37.7390129 26.76217851 39.98833937 29.08204776 45 31 C45 31.66 45 32.32 45 33 C38.07 33 31.14 33 24 33 C24 32.34 24 31.68 24 31 C25.65 31 27.3 31 29 31 C26.03 25.555 26.03 25.555 23 20 C19.22864294 19.65401458 19.22864294 19.65401458 17.25 21.0625 C15.36581591 23.98298534 15.80836657 26.61447605 16 30 C17.98 30.33 19.96 30.66 22 31 C22 31.66 22 32.32 22 33 C17.05 33.495 17.05 33.495 12 34 C12.474375 35.2375 12.94875 36.475 13.4375 37.75 C16.87456496 48.29142891 16.61320721 58.50449334 13 69 C10.6410808 73.31112819 7.845208 77.12328845 4.3984375 80.62890625 C2.37843699 82.6996889 1.00444394 84.18379604 0.98828125 87.15234375 C1.20332214 88.70944707 1.45180685 90.26231804 1.734375 91.80859375 C2.10802047 94.8911689 1.22268369 97.19501977 0 100 C-0.66 100 -1.32 100 -2 100 C-2.20753906 99.31035156 -2.41507813 98.62070313 -2.62890625 97.91015625 C-5.41630202 89.40801603 -9.61070687 83.21451004 -16 77 C-14.56405717 72.65272254 -12.38330566 69.86026263 -9.375 66.4375 C-0.49992875 56.01529449 5.26827861 46.13278874 9 33 C6.03 33 3.06 33 0 33 C0 32.34 0 31.68 0 31 C1.98 30.67 3.96 30.34 6 30 C6.08696177 26.06263877 6.14037835 22.12552372 6.1875 18.1875 C6.21263672 17.06794922 6.23777344 15.94839844 6.26367188 14.79492188 C6.27333984 13.72177734 6.28300781 12.64863281 6.29296875 11.54296875 C6.3086792 10.55321045 6.32438965 9.56345215 6.34057617 8.54370117 C6.20653485 5.97518471 6.20653485 5.97518471 4.66918945 4.21606445 C2.90054984 2.79849948 2.90054984 2.79849948 0 2 C0 1.34 0 0.68 0 0 Z " fill="#F38533" transform="translate(115,21)"/>
<path d="M0 0 C0.99 0.33 1.98 0.66 3 1 C4.0703125 3.703125 4.0703125 3.703125 5.125 7.25 C8.85590412 18.69094967 16.50047322 27.66193818 24.15234375 36.7578125 C26 39 26 39 28 42 C27.319375 42.598125 26.63875 43.19625 25.9375 43.8125 C20.09878279 49.65121721 15.89997303 57.3236008 13 65 C12.34 65 11.68 65 11 65 C11.08121094 63.99839844 11.16242188 62.99679688 11.24609375 61.96484375 C11.89156084 54.6164875 11.89156084 54.6164875 9.65234375 47.8671875 C8.44482189 46.81093761 7.20866632 45.78673164 5.94921875 44.79296875 C0.12934925 39.43962186 -3.36086398 29.82246906 -4 22 C-3.97494822 14.44688817 -1.97842961 7.24179896 0 0 Z " fill="#147C12" transform="translate(65,55)"/>
<path d="M0 0 C7.26 0 14.52 0 22 0 C22 0.66 22 1.32 22 2 C20.7934375 2.433125 20.7934375 2.433125 19.5625 2.875 C16.8673532 3.73262568 16.8673532 3.73262568 16 6 C15.77049681 8.204364 15.58924067 10.41392173 15.4375 12.625 C15.35371094 13.81351563 15.26992187 15.00203125 15.18359375 16.2265625 C15.12300781 17.14179687 15.06242188 18.05703125 15 19 C17.32239398 17.26195031 19.63241085 15.51073865 21.9375 13.75 C22.9265332 13.01330078 22.9265332 13.01330078 23.93554688 12.26171875 C24.56396484 11.77832031 25.19238281 11.29492188 25.83984375 10.796875 C26.42113037 10.35698242 27.00241699 9.91708984 27.60131836 9.46386719 C29.27746637 7.70960231 29.6082062 6.36404394 30 4 C28.35 3.34 26.7 2.68 25 2 C25 1.34 25 0.68 25 0 C31.6 0 38.2 0 45 0 C45 0.66 45 1.32 45 2 C40.33333333 4.33333333 35.66666667 6.66666667 31 9 C31 9.66 31 10.32 31 11 C30.34 11.66 29.68 12.32 29 13 C30.52465403 15.44969116 32.0680794 17.8834362 33.625 20.3125 C34.26501953 21.34793945 34.26501953 21.34793945 34.91796875 22.40429688 C37.7390129 26.76217851 39.98833937 29.08204776 45 31 C45 31.66 45 32.32 45 33 C38.07 33 31.14 33 24 33 C24 32.34 24 31.68 24 31 C25.65 31 27.3 31 29 31 C27.02 27.37 25.04 23.74 23 20 C19.22864294 19.65401458 19.22864294 19.65401458 17.25 21.0625 C15.36581591 23.98298534 15.80836657 26.61447605 16 30 C17.98 30.33 19.96 30.66 22 31 C22 31.66 22 32.32 22 33 C14.74 33 7.48 33 0 33 C0 32.34 0 31.68 0 31 C1.98 30.67 3.96 30.34 6 30 C6.08696177 26.06263877 6.14037835 22.12552372 6.1875 18.1875 C6.21263672 17.06794922 6.23777344 15.94839844 6.26367188 14.79492188 C6.27333984 13.72177734 6.28300781 12.64863281 6.29296875 11.54296875 C6.3086792 10.55321045 6.32438965 9.56345215 6.34057617 8.54370117 C6.20653485 5.97518471 6.20653485 5.97518471 4.66918945 4.21606445 C2.90054984 2.79849948 2.90054984 2.79849948 0 2 C0 1.34 0 0.68 0 0 Z " fill="#147C12" transform="translate(115,21)"/>
<path d="M0 0 C2.171875 0.828125 2.171875 0.828125 5.296875 2.328125 C5.296875 1.668125 5.296875 1.008125 5.296875 0.328125 C6.286875 0.328125 7.276875 0.328125 8.296875 0.328125 C8.296875 4.288125 8.296875 8.248125 8.296875 12.328125 C7.306875 12.328125 6.316875 12.328125 5.296875 12.328125 C4.0859375 10.6484375 4.0859375 10.6484375 2.921875 8.453125 C1.36945709 5.84579996 0.55849384 4.49782371 -2.015625 2.828125 C-6.17405677 2.05446328 -10.82581622 1.38947061 -14.703125 3.328125 C-15.35867619 5.85545735 -15.35867619 5.85545735 -15.703125 8.328125 C-14.56875 8.55886719 -13.434375 8.78960937 -12.265625 9.02734375 C2.88876987 12.25504177 2.88876987 12.25504177 9.296875 17.328125 C11.05713927 20.84865355 10.23131127 24.60363434 9.296875 28.328125 C6.58868285 31.82256648 3.89425583 32.61447883 -0.328125 33.265625 C-6.13598341 33.66797664 -11.23971664 32.1665723 -16.703125 30.328125 C-17.13625 30.823125 -17.569375 31.318125 -18.015625 31.828125 C-19.703125 33.328125 -19.703125 33.328125 -22.703125 33.328125 C-22.703125 28.048125 -22.703125 22.768125 -22.703125 17.328125 C-21.713125 17.328125 -20.723125 17.328125 -19.703125 17.328125 C-18.17863869 20.3108156 -16.76372433 23.146327 -15.703125 26.328125 C-13.32687155 27.51203723 -13.32687155 27.51203723 -10.703125 28.328125 C-9.713125 28.658125 -8.723125 28.988125 -7.703125 29.328125 C-5.80841684 29.3966745 -3.9114416 29.41292872 -2.015625 29.390625 C-1.02175781 29.38160156 -0.02789062 29.37257813 0.99609375 29.36328125 C1.75535156 29.35167969 2.51460937 29.34007813 3.296875 29.328125 C3.448041 26.89597253 3.448041 26.89597253 3.296875 24.328125 C-0.37874309 21.03274326 -5.24398676 20.34789919 -9.90625 19.14453125 C-15.09192372 17.63083599 -19.62654813 15.94299031 -22.703125 11.328125 C-23.21147792 7.4307526 -23.03274683 5.82255774 -20.828125 2.515625 C-15.78983847 -2.67084642 -6.63189656 -1.64839047 0 0 Z " fill="#147C12" transform="translate(56.703125,21.671875)"/>
<path d="M0 0 C13.31451158 -0.91473744 13.31451158 -0.91473744 17.33203125 1.265625 C19.39741187 3.33603088 21 4.96838517 21 8 C21.66 8 22.32 8 23 8 C24.5859375 9.609375 24.5859375 9.609375 26.375 11.75 C28.80332546 14.63831663 31.30138052 17.36082148 34 20 C34.10832169 17.91781638 34.18573541 15.83400871 34.25 13.75 C34.29640625 12.58984375 34.3428125 11.4296875 34.390625 10.234375 C34.27292362 6.9353453 34.27292362 6.9353453 32.171875 4.640625 C30.00982344 2.82577813 30.00982344 2.82577813 27 2 C27 1.34 27 0.68 27 0 C32.94 0 38.88 0 45 0 C45 0.66 45 1.32 45 2 C44.030625 2.4125 43.06125 2.825 42.0625 3.25 C38.93775292 4.60641206 38.93775292 4.60641206 38.32836914 6.75683594 C37.94230113 9.39415404 37.78279324 11.97641017 37.68359375 14.640625 C37.62075195 16.24550781 37.62075195 16.24550781 37.55664062 17.8828125 C37.51732422 18.99398437 37.47800781 20.10515625 37.4375 21.25 C37.37272461 22.93996094 37.37272461 22.93996094 37.30664062 24.6640625 C37.20067985 27.44258954 37.09860858 30.22120391 37 33 C33.76513406 32.29822123 32.10818805 31.63523506 30 29 C30 28.34 30 27.68 30 27 C29.01 26.67 28.02 26.34 27 26 C27 25.34 27 24.68 27 24 C26.34 24 25.68 24 25 24 C23.5546875 22.53125 23.5546875 22.53125 21.875 20.5 C18.1384124 16.09475988 14.13056634 12.03400765 10 8 C9.97096423 11.10414702 9.9531893 14.20825909 9.9375 17.3125 C9.92912109 18.19357422 9.92074219 19.07464844 9.91210938 19.98242188 C9.90888672 20.82998047 9.90566406 21.67753906 9.90234375 22.55078125 C9.89710693 23.33106689 9.89187012 24.11135254 9.88647461 24.9152832 C9.91862137 27.1961555 9.91862137 27.1961555 11 30 C13.31 30.33 15.62 30.66 18 31 C18 31.66 18 32.32 18 33 C12.06 33 6.12 33 0 33 C0 32.34 0 31.68 0 31 C0.804375 30.71125 1.60875 30.4225 2.4375 30.125 C5.1326468 29.26737432 5.1326468 29.26737432 6 27 C6.08426094 25.3325394 6.10725143 23.66174813 6.09765625 21.9921875 C6.09443359 21.00605469 6.09121094 20.01992188 6.08789062 19.00390625 C6.07951172 17.97136719 6.07113281 16.93882813 6.0625 15.875 C6.05573242 14.31458984 6.05573242 14.31458984 6.04882812 12.72265625 C6.03701952 10.14838038 6.02055075 7.57421854 6 5 C4.02 4.01 2.04 3.02 0 2 C0 1.34 0 0.68 0 0 Z " fill="#147C12" transform="translate(69,21)"/>
<path d="M0 0 C3.51244725 2.67251421 4.79080071 4.21898933 5.9375 8.5 C6.03245773 13.81763308 5.01365815 15.88744837 1.4375 19.8125 C-1.88574306 22.40087359 -4.81594387 22.60372329 -8.94140625 22.3671875 C-11.63497879 21.88674003 -13.18592484 21.05069366 -15 19 C-15 18.34 -15 17.68 -15 17 C-15.66 17 -16.32 17 -17 17 C-18.24609651 13.26171047 -18.64480864 9.87617921 -18 6 C-15.71845198 2.3763649 -13.91694357 0.47840534 -10.125 -1.5 C-6.08868891 -2.14580977 -3.76590807 -1.57483428 0 0 Z " fill="#F38533" transform="translate(102,58)"/>
<path d="M0 0 C0.66 0 1.32 0 2 0 C8.40820325 11.27550267 10.88861322 22.9786891 7.75 35.6875 C6.45259271 40.10737556 4.83304401 43.38542661 2 47 C-1.35915158 45.56036361 -3.71624938 43.87583411 -6 41 C-5.57222437 38.01796989 -4.38883734 35.58752419 -3 32.9375 C0.32633811 26.56609501 1.43022636 19.70157286 -0.70703125 12.67578125 C-0.98933594 11.99902344 -1.27164063 11.32226562 -1.5625 10.625 C-3.00638308 6.98390353 -3.37443831 5.59468482 -2 2 C-1.34 1.34 -0.68 0.68 0 0 Z " fill="#147C12" transform="translate(102,110)"/>
</svg>
